<svg width="512" height="512" viewBox="0 0 512 512" fill="none" xmlns="http://www.w3.org/2000/svg">
<rect width="512" height="512" fill="white" fill-opacity="0.73"/>
<path opacity="0.2" d="M420.502 71.7551L47.8461 176.863C44.711 177.747 41.9205 179.567 39.8476 182.08C37.7746 184.593 36.5179 187.678 36.2455 190.924C35.9731 194.17 36.6979 197.422 38.323 200.245C39.9482 203.068 42.3963 205.328 45.3401 206.722L216.562 287.827C219.901 289.409 222.59 292.098 224.172 295.438L305.277 466.659C306.672 469.603 308.931 472.051 311.754 473.676C314.577 475.301 317.829 476.026 321.075 475.754C324.321 475.481 327.407 474.225 329.919 472.152C332.432 470.079 334.252 467.288 335.136 464.153L440.244 91.4977C441.016 88.7603 441.045 85.8666 440.327 83.1146C439.608 80.3626 438.17 77.8517 436.159 75.8406C434.147 73.8295 431.637 72.3908 428.885 71.6727C426.133 70.9546 423.239 70.983 420.502 71.7551Z" fill="#FFFB9D"/>
<path d="M420.502 71.7551L47.8461 176.863C44.711 177.747 41.9205 179.567 39.8476 182.08C37.7746 184.593 36.5179 187.678 36.2455 190.924C35.9731 194.17 36.6979 197.422 38.323 200.245C39.9482 203.068 42.3963 205.328 45.3401 206.722L216.562 287.827C219.901 289.409 222.59 292.098 224.172 295.438L305.277 466.659C306.672 469.603 308.931 472.051 311.754 473.676C314.577 475.301 317.829 476.026 321.075 475.754C324.321 475.481 327.407 474.225 329.919 472.152C332.432 470.079 334.252 467.288 335.136 464.153L440.244 91.4977C441.016 88.7603 441.045 85.8666 440.327 83.1146C439.608 80.3626 438.17 77.8517 436.159 75.8406C434.147 73.8295 431.637 72.3908 428.885 71.6727C426.133 70.9546 423.239 70.983 420.502 71.7551Z" stroke="black" stroke-width="2" stroke-linecap="round" stroke-linejoin="round"/>
<path d="M221.726 290.273L312.235 199.764" stroke="black" stroke-width="2" stroke-linecap="round" stroke-linejoin="round"/>
</svg>
